<svg width="119" height="34" viewBox="0 0 119 34" fill="none" xmlns="http://www.w3.org/2000/svg">
<path d="M21.8696 0V25.5594H14.771V15.7433H7.09853V25.5594H0V0H7.09853V9.21872H14.771V0H21.8696Z" fill="white"/>
<path d="M25.8757 17.1021V5.84515H32.6696V16.7975C32.6696 18.8826 33.7942 20.1008 35.5981 20.1008C37.4137 20.1008 38.5148 18.8591 38.5148 16.7975V5.84515H45.3088V17.1021C45.3088 22.6192 41.4315 26.2154 35.6098 26.2154C29.7763 26.2037 25.8757 22.6192 25.8757 17.1021Z" fill="white"/>
<path d="M69.7085 5.84518V23.369C69.7085 29.5655 65.6556 33.4076 59.1427 33.4076C53.5436 33.4076 49.6312 30.5846 48.7292 25.9108H55.2772C55.7457 27.2228 57.4325 27.9373 59.0842 27.9373C61.3566 27.9373 63.184 26.4965 63.184 24.1421V23.5564C61.6963 24.4935 59.9393 25.0323 58.0416 25.0323C52.3839 25.0323 48.1904 20.8271 48.1904 15.1225C48.1904 9.49988 52.3956 5.20093 58.0416 5.20093C60.4312 5.20093 62.5866 6.05603 64.2616 7.48511L65.1285 5.83347L69.7085 5.84518ZM59.1661 19.4448C61.6026 19.4448 63.3597 17.6409 63.3597 15.1225C63.3597 12.6274 61.6143 10.8235 59.1661 10.8235C56.7297 10.8235 54.9609 12.6274 54.9609 15.1225C54.9492 17.6409 56.7063 19.4448 59.1661 19.4448Z" fill="white"/>
<path d="M94.3894 5.84518V23.369C94.3894 29.5655 90.3364 33.4076 83.8236 33.4076C78.2244 33.4076 74.312 30.5846 73.41 25.9108H79.958C80.4266 27.2228 82.1134 27.9373 83.765 27.9373C86.0375 27.9373 87.8648 26.4965 87.8648 24.1421V23.5564C86.3772 24.4935 84.6201 25.0323 82.7225 25.0323C77.0647 25.0323 72.8712 20.8271 72.8712 15.1225C72.8712 9.49988 77.0764 5.20093 82.7225 5.20093C85.1121 5.20093 87.2674 6.05603 88.9425 7.48511L89.8093 5.83347L94.3894 5.84518ZM83.847 19.4448C86.2835 19.4448 88.0405 17.6409 88.0405 15.1225C88.0405 12.6274 86.2952 10.8235 83.847 10.8235C81.4105 10.8235 79.6418 12.6274 79.6418 15.1225C79.6418 17.6409 81.3871 19.4448 83.847 19.4448Z" fill="white"/>
<path d="M119 15.5207C119 16.1181 118.953 16.7038 118.859 17.3129H104.217C104.662 19.5737 106.103 20.7451 108.247 20.7451C109.828 20.7451 111.164 20.054 111.808 18.8943H118.567C117.184 23.3924 113.19 26.2037 108.247 26.2037C102.097 26.2037 97.5404 21.7056 97.5404 15.6847C97.5404 9.64044 102.062 5.20093 108.247 5.20093C114.596 5.20093 119 9.73415 119 15.5207ZM104.334 13.5528H112.3C111.702 11.5849 110.285 10.519 108.235 10.519C106.267 10.519 104.885 11.5966 104.334 13.5528Z" fill="white"/>
</svg>
