<svg width="20" height="22" viewBox="0 0 20 22" fill="none" xmlns="http://www.w3.org/2000/svg">
<path fill-rule="evenodd" clip-rule="evenodd" d="M7.11612 2.11612C7.35054 1.8817 7.66848 1.75 8 1.75H12C12.3315 1.75 12.6495 1.8817 12.8839 2.11612C13.1183 2.35054 13.25 2.66848 13.25 3V4.25H6.75V3C6.75 2.66848 6.8817 2.35054 7.11612 2.11612ZM5.25 4.25V3C5.25 2.27065 5.53973 1.57118 6.05546 1.05546C6.57118 0.539731 7.27065 0.25 8 0.25H12C12.7293 0.25 13.4288 0.539731 13.9445 1.05546C14.4603 1.57118 14.75 2.27065 14.75 3V4.25H17H19C19.4142 4.25 19.75 4.58579 19.75 5C19.75 5.41421 19.4142 5.75 19 5.75H17.75V19C17.75 19.7293 17.4603 20.4288 16.9445 20.9445C16.4288 21.4603 15.7293 21.75 15 21.75H5C4.27065 21.75 3.57118 21.4603 3.05546 20.9445C2.53973 20.4288 2.25 19.7293 2.25 19V5.75H1C0.585786 5.75 0.25 5.41421 0.25 5C0.25 4.58579 0.585786 4.25 1 4.25H3H5.25ZM3.75 5.75V19C3.75 19.3315 3.8817 19.6495 4.11612 19.8839C4.35054 20.1183 4.66848 20.25 5 20.25H15C15.3315 20.25 15.6495 20.1183 15.8839 19.8839C16.1183 19.6495 16.25 19.3315 16.25 19V5.75H14H6H3.75ZM8 9.25C8.41421 9.25 8.75 9.58579 8.75 10V16C8.75 16.4142 8.41421 16.75 8 16.75C7.58579 16.75 7.25 16.4142 7.25 16V10C7.25 9.58579 7.58579 9.25 8 9.25ZM12.75 10C12.75 9.58579 12.4142 9.25 12 9.25C11.5858 9.25 11.25 9.58579 11.25 10V16C11.25 16.4142 11.5858 16.75 12 16.75C12.4142 16.75 12.75 16.4142 12.75 16V10Z" fill="#FF5247"/>
</svg>
